<svg aria-hidden="true" style="position: absolute; width: 0; height: 0; overflow: hidden;" version="1.1" xmlns="http://www.w3.org/2000/svg" xmlns:xlink="http://www.w3.org/1999/xlink">
<defs>
<symbol id="icon-menu" viewBox="0 0 40 32">
<path fill="#fff" style="fill: var(--color1, #fff)" d="M6.668 8h26.667v2.667h-26.667v-2.667zM13.335 14.667h20v2.667h-20v-2.667zM21.668 21.333h11.667v2.667h-11.667v-2.667z"></path>
</symbol>
<symbol id="icon-mail" viewBox="0 0 39 32">
<path fill="#2091f9" style="fill: var(--color2, #2091f9)" d="M35.913 1.259h-33.913c-0.721 0-1.304 0.583-1.304 1.304v26.087c0 0.721 0.583 1.304 1.304 1.304h33.913c0.722 0 1.304-0.583 1.304-1.304v-26.087c0-0.721-0.583-1.304-1.304-1.304zM34.283 5.775v21.245h-30.652v-21.245l-1.125-0.876 1.602-2.058 1.745 1.357h26.213l1.745-1.357 1.602 2.058-1.129 0.876zM32.065 4.194l-13.109 10.19-14.853-11.548-1.602 2.058 1.125 0.876 13.924 10.826c0.4 0.311 0.893 0.48 1.4 0.48s1-0.169 1.4-0.48l15.057-11.698-1.602-2.058-1.741 1.353z"></path>
</symbol>
<symbol id="icon-android" viewBox="0 0 20 32">
<path fill="#2091f9" style="fill: var(--color2, #2091f9)" d="M15.124 1.075h-10.667c-2.213 0-4 1.787-4 4v21.333c0 2.213 1.787 4 4 4h10.667c2.213 0 4-1.787 4-4v-21.333c0-2.213-1.787-4-4-4zM12.457 27.742h-5.333v-1.333h5.333v1.333zM16.791 23.742h-14v-18.667h14v18.667z"></path>
</symbol>
<symbol id="icon-map" viewBox="0 0 25 32">
<path fill="#2091f9" style="fill: var(--color2, #2091f9)" d="M12.607 19.281c3.387 0 6.141-2.754 6.141-6.141s-2.754-6.141-6.141-6.141-6.141 2.754-6.141 6.141c0 3.387 2.754 6.141 6.141 6.141zM12.607 10.069c1.693 0 3.071 1.377 3.071 3.071s-1.377 3.071-3.071 3.071c-1.693 0-3.071-1.377-3.071-3.071s1.377-3.071 3.071-3.071z"></path>
<path fill="#2091f9" style="fill: var(--color2, #2091f9)" d="M11.393 31.279c0.26 0.186 0.571 0.285 0.89 0.285s0.631-0.1 0.89-0.285c0.467-0.33 11.437-8.251 11.392-18.139 0-6.772-5.51-12.283-12.283-12.283s-12.283 5.51-12.283 12.275c-0.045 9.895 10.926 17.816 11.392 18.146zM12.283 3.928c5.081 0 9.212 4.132 9.212 9.22 0.032 6.814-6.737 12.932-9.212 14.939-2.473-2.008-9.244-8.128-9.212-14.947 0-5.081 4.132-9.212 9.212-9.212z"></path>
</symbol>
<symbol id="icon-play" viewBox="0 0 32 32">
<path fill="#2091f9" style="fill: var(--color2, #2091f9)" d="M31.919 16c0 8.808-7.14 15.949-15.949 15.949s-15.949-7.14-15.949-15.949c0-8.808 7.14-15.949 15.949-15.949s15.949 7.14 15.949 15.949z"></path>
<path fill="#fff" style="fill: var(--color1, #fff)" d="M13.515 12.186l6.645 3.987-6.645 3.987v-7.974z"></path>
</symbol>
<symbol id="icon-brush" viewBox="0 0 32 32">
<path fill="#2091f9" style="fill: var(--color2, #2091f9)" d="M27.613 6.173l-1.787-1.787c-0.493-0.52-1.36-0.52-1.88 0l-11.947 11.947 3.667 3.667 11.947-11.947c0.52-0.52 0.52-1.387 0-1.88zM9.333 18.667c-1.061 0-2.078 0.421-2.828 1.172s-1.172 1.768-1.172 2.828c0 1.747-1.547 2.667-2.667 2.667 1.227 1.627 3.333 2.667 5.333 2.667 1.414 0 2.771-0.562 3.771-1.562s1.562-2.357 1.562-3.771c0-1.061-0.421-2.078-1.172-2.828s-1.768-1.172-2.828-1.172z"></path>
</symbol>
<symbol id="icon-draw" viewBox="0 0 33 32">
<path fill="#2091f9" style="fill: var(--color2, #2091f9)" d="M13.285 27.8c2.373-0.933 1.853-3.507 0.653-5.133-1.187-1.667-2.827-2.813-4.48-3.92-1.18-0.744-2.233-1.671-3.12-2.747-0.373-0.44-1.133-1.253-0.36-1.413 0.787-0.16 2.147 0.613 2.84 0.907 1.213 0.507 2.413 1.093 3.533 1.787l1.347-2.267c-2.080-1.373-4.747-2.587-7.227-2.947-1.413-0.213-2.907 0.080-3.387 1.613-0.427 1.32 0.253 2.653 1.027 3.693 1.827 2.44 4.667 3.613 6.787 5.72 0.453 0.44 1 0.96 1.267 1.573 0.28 0.587 0.213 0.627-0.413 0.627-1.653 0-3.72-1.293-5.067-2.147l-1.347 2.267c2.040 1.253 5.453 3.213 7.947 2.387zM28.072 7c0.293-0.293 0.293-0.773 0-1.053l-1.733-1.733c-0.14-0.135-0.326-0.21-0.52-0.21s-0.38 0.075-0.52 0.21l-1.36 1.36 2.773 2.773 1.36-1.347zM14.952 14.56v2.773h2.773l8.2-8.2-2.773-2.773-8.2 8.2z"></path>
</symbol>
<symbol id="icon-figures" viewBox="0 0 32 32">
<path fill="#2091f9" style="fill: var(--color2, #2091f9)" d="M11.333 4c1.945 0 3.81 0.773 5.185 2.148s2.148 3.241 2.148 5.185c0 1.773-0.627 3.4-1.68 4.667h11.013v12h-12v-11.013c-1.267 1.053-2.893 1.68-4.667 1.68-1.945 0-3.81-0.773-5.185-2.148s-2.148-3.241-2.148-5.185c0-1.945 0.773-3.81 2.148-5.185s3.241-2.148 5.185-2.148z"></path>
</symbol>
<symbol id="icon-linkedin" viewBox="0 0 32 32">
<path fill="#fff" style="fill: var(--color1, #fff)" d="M27.227 3.802h-22.445c-0.54 0-0.976 0.436-0.976 0.976v22.445c0 0.54 0.436 0.976 0.976 0.976h22.445c0.54 0 0.976-0.436 0.976-0.976v-22.445c0-0.54-0.436-0.976-0.976-0.976zM11.043 24.591h-3.62v-11.643h3.62v11.643zM9.235 11.355c-0.415 0-0.821-0.123-1.166-0.354s-0.614-0.558-0.773-0.942-0.2-0.805-0.119-1.212c0.081-0.407 0.281-0.781 0.574-1.074s0.667-0.493 1.074-0.574 0.829-0.039 1.212 0.119c0.383 0.159 0.711 0.428 0.942 0.773s0.354 0.751 0.354 1.166c-0.003 1.159-0.942 2.098-2.098 2.098zM24.596 24.591h-3.617v-5.663c0-1.351-0.024-3.086-1.882-3.086-1.882 0-2.171 1.47-2.171 2.989v5.761h-3.614v-11.643h3.47v1.592h0.049c0.482-0.915 1.662-1.882 3.425-1.882 3.666 0 4.34 2.412 4.34 5.547v6.386z"></path>
</symbol>
<symbol id="icon-facebook" viewBox="0 0 31 32">
<path fill="#fff" style="fill: var(--color1, #fff)" d="M28.943 0.931h-27.726c-0.667 0-1.206 0.539-1.206 1.206v27.726c0 0.667 0.539 1.205 1.206 1.205h27.726c0.667 0 1.205-0.539 1.205-1.205v-27.726c0-0.667-0.539-1.206-1.205-1.206zM25.462 9.728h-2.407c-1.887 0-2.253 0.897-2.253 2.215v2.904h4.505l-0.588 4.547h-3.918v11.674h-4.698v-11.671h-3.929v-4.551h3.929v-3.353c0-3.891 2.377-6.012 5.85-6.012 1.665 0 3.093 0.124 3.511 0.181v4.065h-0.004z"></path>
</symbol>
<symbol id="icon-twitter" viewBox="0 0 32 32">
<path fill="#fff" style="fill: var(--color1, #fff)" d="M28.712 8.141c-0.933 0.402-1.949 0.692-2.995 0.805 1.086-0.645 1.899-1.664 2.287-2.867-1.019 0.606-2.135 1.031-3.3 1.256-0.487-0.52-1.075-0.935-1.729-1.217s-1.359-0.428-2.071-0.426c-2.882 0-5.2 2.336-5.2 5.203 0 0.402 0.049 0.805 0.128 1.192-4.315-0.226-8.164-2.287-10.722-5.444-0.466 0.796-0.71 1.703-0.707 2.626 0 1.805 0.918 3.397 2.318 4.333-0.825-0.032-1.63-0.259-2.351-0.662v0.064c0 2.528 1.787 4.623 4.169 5.105-0.447 0.116-0.907 0.176-1.369 0.177-0.338 0-0.659-0.034-0.982-0.079 0.659 2.062 2.577 3.559 4.861 3.608-1.787 1.4-4.026 2.223-6.456 2.223-0.436 0-0.839-0.015-1.256-0.064 2.305 1.479 5.041 2.333 7.987 2.333 9.564 0 14.797-7.923 14.797-14.8 0-0.226 0-0.451-0.015-0.677 1.012-0.741 1.9-1.659 2.607-2.69z"></path>
</symbol>
</defs>
</svg>
